<svg xmlns="http://www.w3.org/2000/svg" viewBox="0 0 720 410" role="img" aria-labelledby="title desc">
  <title id="title">BSC Line Haul</title>
  <desc id="desc">Marca BSC Line Haul com velocímetro</desc>
  <defs>
    <linearGradient id="bscRed" x1="0" x2="1" y1="0" y2="1">
      <stop offset="0" stop-color="#ff3d18"/>
      <stop offset="1" stop-color="#e72712"/>
    </linearGradient>
  </defs>
  <g fill="url(#bscRed)">
    <path d="M95 254h132c41 0 70-15 77-45 4-19-3-34-22-41 23-9 36-25 39-45 5-31-17-49-63-49H145L95 254Zm86-118 11-33h52c16 0 25 6 23 17-2 10-12 16-29 16h-57Zm-22 78 12-37h65c18 0 28 6 26 18-3 12-15 19-35 19h-68Z"/>
    <path d="M311 254h178l13-43H383c-18 0-26-5-24-16 2-10 13-16 30-16h67c48 0 76-20 83-56 6-32-18-49-68-49H334l-13 43h126c18 0 27 5 25 16-2 10-13 15-31 15h-67c-49 0-78 20-84 57-6 32 18 49 21 49Z"/>
    <path d="M548 254h119l13-43H573c-29 0-42-15-36-46 6-31 25-48 55-48h110l13-43H587c-58 0-96 32-107 88-11 57 16 92 68 92Z"/>
    <path d="M159 310h14v18h37v12h-51v-30Zm93 0h15v30h-15v-30Zm57 0h15l38 16v-16h14v30h-15l-38-16v16h-14v-30Zm110 0h56v11h-41v4h35v10h-35v5h42v10h-57v-40Zm102 0h15v14h39v-14h15v40h-15v-15h-39v15h-15v-40Zm112 40 27-40h18l27 40h-17l-5-8h-29l-5 8h-16Zm27-18h17l-9-14-8 14Zm88-22h15v22c0 5 4 8 15 8s15-3 15-8v-22h15v23c0 13-10 19-30 19s-30-6-30-19v-23Zm104 0h14v18h37v12h-51v-30Z"/>
    <path d="M227 49c25-10 53-17 82-21l5 36c-26 4-50 10-72 19l-15-34Zm107-24c28-2 57-1 85 3l-7 36c-25-4-50-5-75-3l-3-36Zm111 8c29 7 56 18 82 32l-19 31c-22-12-47-22-73-28l10-35Zm105 46c25 17 47 38 65 62l-31 18c-16-21-35-39-57-54l23-26Zm82 87c14 23 24 49 30 77h-72c-5-20-12-38-22-55l64-22ZM59 238c5-24 13-47 25-69l31 16c-10 19-17 39-21 60l-35-7Zm39-94c13-21 29-40 48-56l23 27c-16 14-30 30-41 48l-30-19Zm65-72c19-15 40-28 64-38l15 33c-20 9-39 20-55 33l-24-28Z"/>
    <path d="M419 81 313 170c-9 8-12 22-6 33 8 16 29 20 43 8L419 81Zm-92 106a11 11 0 1 1 0 22 11 11 0 0 1 0-22Z"/>
    <path d="M268 366h108v7H268v-7Zm196 0h108v7H464v-7Zm-44-23a36 36 0 1 1 0 72 36 36 0 0 1 0-72Zm-17 36 14 14 31-30-9-9-22 21-7-7-7 11Z"/>
  </g>
</svg>
